ffmpeg version 4.2.7-0ubuntu0.1 Copyright (c) 2000-2022 the FFmpeg developers
  built with gcc 9 (Ubuntu 9.4.0-1ubuntu1~20.04.1)
  configuration: --prefix=/usr --extra-version=0ubuntu0.1 --toolchain=hardened --libdir=/usr/lib/x86_64-linux-gnu --incdir=/usr/include/x86_64-linux-gnu --arch=amd64 --enable-gpl --disable-stripping --enable-avresample --disable-filter=resample --enable-avisynth --enable-gnutls --enable-ladspa --enable-libaom --enable-libass --enable-libbluray --enable-libbs2b --enable-libcaca --enable-libcdio --enable-libcodec2 --enable-libflite --enable-libfontconfig --enable-libfreetype --enable-libfribidi --enable-libgme --enable-libgsm --enable-libjack --enable-libmp3lame --enable-libmysofa --enable-libopenjpeg --enable-libopenmpt --enable-libopus --enable-libpulse --enable-librsvg --enable-librubberband --enable-libshine --enable-libsnappy --enable-libsoxr --enable-libspeex --enable-libssh --enable-libtheora --enable-libtwolame --enable-libvidstab --enable-libvorbis --enable-libvpx --enable-libwavpack --enable-libwebp --enable-libx265 --enable-libxml2 --enable-libxvid --enable-libzmq --enable-libzvbi --enable-lv2 --enable-omx --enable-openal --enable-opencl --enable-opengl --enable-sdl2 --enable-libdc1394 --enable-libdrm --enable-libiec61883 --enable-nvenc --enable-chromaprint --enable-frei0r --enable-libx264 --enable-shared
  libavutil      56. 31.100 / 56. 31.100
  libavcodec     58. 54.100 / 58. 54.100
  libavformat    58. 29.100 / 58. 29.100
  libavdevice    58.  8.100 / 58.  8.100
  libavfilter     7. 57.100 /  7. 57.100
  libavresample   4.  0.  0 /  4.  0.  0
  libswscale      5.  5.100 /  5.  5.100
  libswresample   3.  5.100 /  3.  5.100
  libpostproc    55.  5.100 / 55.  5.100
Routing option strict to both codec and muxer layer
[h264 @ 0x555b3609ab80] Reinit context to 1920x1088, pix_fmt: yuv420p
Input #0, mov,mp4,m4a,3gp,3g2,mj2, from '/var/www/html/project/media/video/original/Il_mio_filmato_1.mov':
  Metadata:
    major_brand     : qt  
    minor_version   : 0
    compatible_brands: qt  
    creation_time   : 2024-12-04T16:31:51.000000Z
    com.apple.quicktime.artwork: ˙Ř˙ŕ
    com.apple.quicktime.is-montage: iMovie
    com.apple.photos.originating.signature: AY+UNXhsbiRgnGqLkccYA8exSFvI
  Duration: 00:01:15.00, start: 0.000000, bitrate: 15324 kb/s
    Stream #0:0(und): Audio: aac (LC) (mp4a / 0x6134706D), 44100 Hz, stereo, fltp, 251 kb/s (default)
    Metadata:
      creation_time   : 2024-12-04T16:31:51.000000Z
      handler_name    : Core Media Audio
    Stream #0:1(und): Video: h264 (High), 1 reference frame (avc1 / 0x31637661), yuv420p(tv, bt709, left), 1920x1080 (1920x1088), 15058 kb/s, 29.96 fps, 30 tbr, 600 tbn, 1200 tbc (default)
    Metadata:
      creation_time   : 2024-12-04T16:31:51.000000Z
      handler_name    : Core Media Video
      encoder         : H.264
Input #1, png_pipe, from '/var/www/html/project/static/images/templates/logo.png':
  Duration: N/A, bitrate: N/A
    Stream #1:0: Video: png, 1 reference frame, rgba(pc), 1920x1080 [SAR 2835:2835 DAR 16:9], 25 tbr, 25 tbn, 25 tbc
[Parsed_scale_0 @ 0x555b36108e40] w:1280 h:720 flags:'bilinear' interl:0
[Parsed_scale_2 @ 0x555b360c8100] w:1280 h:720 flags:'bilinear' interl:0
Stream mapping:
  Stream #0:1 (h264) -> scale (graph 0)
  Stream #1:0 (png) -> scale (graph 0)
  overlay (graph 0) -> Stream #0:0 (libx264)
  Stream #0:0 -> #0:1 (aac (native) -> aac (native))
Press [q] to stop, [?] for help
[graph_1_in_0_0 @ 0x555b3647e100] tb:1/44100 samplefmt:fltp samplerate:44100 chlayout:0x3
[h264 @ 0x555b360f2040] Reinit context to 1920x1088, pix_fmt: yuv420p
[Parsed_scale_0 @ 0x555b37079ac0] w:1280 h:720 flags:'bilinear' interl:0
[Parsed_scale_2 @ 0x555b3714f5c0] w:1280 h:720 flags:'bilinear' interl:0
[graph 0 input from stream 0:1 @ 0x555b37151b40] w:1920 h:1080 pixfmt:yuv420p tb:1/600 fr:30/1 sar:0/1 sws_param:flags=2
[graph 0 input from stream 1:0 @ 0x555b37152300] w:1920 h:1080 pixfmt:rgba tb:1/25 fr:25/1 sar:2835/2835 sws_param:flags=2
[Parsed_scale_0 @ 0x555b37079ac0] w:1920 h:1080 fmt:yuv420p sar:0/1 -> w:1280 h:720 fmt:yuv420p sar:0/1 flags:0x2
[Parsed_setsar_1 @ 0x555b3714cd00] w:1280 h:720 sar:0/1 dar:16/9 -> sar:1/1 dar:16/9
[Parsed_scale_2 @ 0x555b3714f5c0] w:1920 h:1080 fmt:rgba sar:2835/2835 -> w:1280 h:720 fmt:yuva420p sar:1/1 flags:0x2
[Parsed_setsar_3 @ 0x555b37150cc0] w:1280 h:720 sar:1/1 dar:16/9 -> sar:1/1 dar:16/9
[Parsed_overlay_4 @ 0x555b37151200] main w:1280 h:720 fmt:yuv420p overlay w:1280 h:720 fmt:yuva420p
[Parsed_overlay_4 @ 0x555b37151200] [framesync @ 0x555b37151328] Selected 1/600 time base
[Parsed_overlay_4 @ 0x555b37151200] [framesync @ 0x555b37151328] Sync level 2
[libx264 @ 0x555b360f6680] using SAR=1/1
[libx264 @ 0x555b360f6680] using cpu capabilities: MMX2 SSE2Fast SSSE3 SSE4.2 AVX FMA3 BMI2 AVX2
[libx264 @ 0x555b360f6680] profile High, level 3.1
[libx264 @ 0x555b360f6680] 264 - core 155 r2917 0a84d98 - H.264/MPEG-4 AVC codec - Copyleft 2003-2018 - http://www.videolan.org/x264.html - options: cabac=1 ref=1 deblock=1:0:0 analyse=0x3:0x113 me=hex subme=2 psy=1 psy_rd=1.00:0.00 mixed_ref=0 me_range=16 chroma_me=1 trellis=0 8x8dct=1 cqm=0 deadzone=21,11 fast_pskip=1 chroma_qp_offset=0 threads=22 lookahead_threads=5 sliced_threads=0 nr=0 decimate=1 interlaced=0 bluray_compat=0 constrained_intra=0 bframes=3 b_pyramid=2 b_adapt=1 b_bias=0 direct=1 weightb=1 open_gop=0 weightp=1 keyint=250 keyint_min=25 scenecut=40 intra_refresh=0 rc_lookahead=10 rc=crf mbtree=1 crf=18.0 qcomp=0.60 qpmin=0 qpmax=69 qpstep=4 ip_ratio=1.40 aq=1:1.00
Output #0, mp4, to '/var/www/html/project/media/video/watermarks/Il_mio_filmato_1.mp4':
  Metadata:
    major_brand     : qt  
    minor_version   : 0
    compatible_brands: qt  
    com.apple.photos.originating.signature: AY+UNXhsbiRgnGqLkccYA8exSFvI
    com.apple.quicktime.artwork: ˙Ř˙ŕ
    com.apple.quicktime.is-montage: iMovie
    encoder         : Lavf58.29.100
    Stream #0:0: Video: h264 (libx264), 1 reference frame (avc1 / 0x31637661), yuv420p, 1280x720 [SAR 1:1 DAR 16:9], q=-1--1, 30 fps, 15360 tbn, 30 tbc (default)
    Metadata:
      encoder         : Lavc58.54.100 libx264
    Side data:
      cpb: bitrate max/min/avg: 0/0/0 buffer size: 0 vbv_delay: -1
    Stream #0:1(und): Audio: aac (LC) (mp4a / 0x6134706D), 44100 Hz, stereo, fltp, delay 1024, 128 kb/s (default)
    Metadata:
      creation_time   : 2024-12-04T16:31:51.000000Z
      handler_name    : Core Media Audio
      encoder         : Lavc58.54.100 aac
[Parsed_overlay_4 @ 0x555b37151200] [framesync @ 0x555b37151328] Sync level 0
No more output streams to write to, finishing.
frame= 2247 fps= 66 q=-1.0 Lsize=   35848kB time=00:01:15.02 bitrate=3914.3kbits/s speed= 2.2x    
[AVIOContext @ 0x555b360970c0] Statistics: 0 seeks, 68 writeouts
video:34590kB audio:1178kB subtitle:0kB other streams:0kB global headers:0kB muxing overhead: 0.225636%
Input file #0 (/var/www/html/project/media/video/original/Il_mio_filmato_1.mov):
  Input stream #0:0 (audio): 3233 packets read (2358787 bytes); 3231 frames decoded (3308480 samples); 
  Input stream #0:1 (video): 2247 packets read (141175364 bytes); 2247 frames decoded; 
  Total: 5480 packets (143534151 bytes) demuxed
Input file #1 (/var/www/html/project/static/images/templates/logo.png):
  Input stream #1:0 (video): 1 packets read (111578 bytes); 1 frames decoded; 
  Total: 1 packets (111578 bytes) demuxed
Output file #0 (/var/www/html/project/media/video/watermarks/Il_mio_filmato_1.mp4):
  Output stream #0:0 (video): 2247 frames encoded; 2247 packets muxed (35419821 bytes); 
  Output stream #0:1 (audio): 3231 frames encoded (3308480 samples); 3232 packets muxed (1206045 bytes); 
  Total: 5479 packets (36625866 bytes) muxed
[AVIOContext @ 0x555b3610aac0] Statistics: 2 seeks, 143 writeouts
[libx264 @ 0x555b360f6680] frame I:13    Avg QP:16.74  size:183569
[libx264 @ 0x555b360f6680] frame P:572   Avg QP:20.07  size: 41431
[libx264 @ 0x555b360f6680] frame B:1662  Avg QP:22.95  size:  5616
[libx264 @ 0x555b360f6680] consecutive B-frames:  0.8%  1.0%  2.7% 95.6%
[libx264 @ 0x555b360f6680] mb I  I16..4:  5.5%  7.5% 87.0%
[libx264 @ 0x555b360f6680] mb P  I16..4:  3.5%  3.0%  2.5%  P16..4: 48.4% 21.0% 15.9%  0.0%  0.0%    skip: 5.8%
[libx264 @ 0x555b360f6680] mb B  I16..4:  0.6%  0.2%  0.0%  B16..8: 17.7%  6.6%  1.2%  direct:10.3%  skip:63.4%  L0:30.2% L1:42.0% BI:27.7%
[libx264 @ 0x555b360f6680] 8x8 transform intra:26.6% inter:35.8%
[libx264 @ 0x555b360f6680] coded y,uvDC,uvAC intra: 54.0% 63.3% 31.3% inter: 17.1% 15.6% 1.5%
[libx264 @ 0x555b360f6680] i16 v,h,dc,p: 57% 23% 15%  5%
[libx264 @ 0x555b360f6680] i8 v,h,dc,ddl,ddr,vr,hd,vl,hu: 39% 20% 21%  3%  3%  4%  3%  4%  3%
[libx264 @ 0x555b360f6680] i4 v,h,dc,ddl,ddr,vr,hd,vl,hu: 27% 24% 10%  5%  6%  6%  8%  5%  8%
[libx264 @ 0x555b360f6680] i8c dc,h,v,p: 46% 18% 31%  5%
[libx264 @ 0x555b360f6680] Weighted P-Frames: Y:5.6% UV:2.6%
[libx264 @ 0x555b360f6680] kb/s:3778.04
[aac @ 0x555b3610d680] Qavg: 161.339
[AVIOContext @ 0x555b360a0040] Statistics: 234100899 bytes read, 4488 seeks
[AVIOContext @ 0x555b360bc2c0] Statistics: 111578 bytes read, 0 seeks
